<svg width="38" height="38" viewBox="0 0 38 38" fill="none" xmlns="http://www.w3.org/2000/svg">
<path d="M15.5372 25.1813L14.25 29.6875L12.9628 25.1813C12.63 24.0174 12.0063 22.9574 11.1502 22.1013C10.2942 21.2453 9.23422 20.6215 8.07025 20.2888L3.5625 19L8.06867 17.7128C9.23264 17.38 10.2926 16.7563 11.1487 15.9002C12.0047 15.0442 12.6285 13.9842 12.9612 12.8203L14.25 8.3125L15.5372 12.8187C15.87 13.9826 16.4937 15.0426 17.3498 15.8987C18.2058 16.7547 19.2658 17.3785 20.4298 17.7112L24.9375 19L20.4313 20.2872C19.2674 20.62 18.2074 21.2437 17.3513 22.0998C16.4953 22.9558 15.8715 24.0158 15.5388 25.1798L15.5372 25.1813ZM28.9101 13.7988L28.5 15.4375L28.0899 13.7988C27.8552 12.8592 27.3695 12.0011 26.6849 11.3161C26.0002 10.6312 25.1423 10.1452 24.2028 9.91008L22.5625 9.5L24.2028 9.08992C25.1423 8.8548 26.0002 8.3688 26.6849 7.68387C27.3695 6.99893 27.8552 6.14082 28.0899 5.20125L28.5 3.5625L28.9101 5.20125C29.1449 6.14101 29.6308 6.99926 30.3158 7.68422C31.0007 8.36917 31.859 8.85506 32.7988 9.08992L34.4375 9.5L32.7988 9.91008C31.859 10.1449 31.0007 10.6308 30.3158 11.3158C29.6308 12.0007 29.1449 12.859 28.9101 13.7988ZM26.7488 32.5644L26.125 34.4375L25.5012 32.5644C25.3263 32.0397 25.0316 31.563 24.6406 31.1719C24.2495 30.7809 23.7728 30.4862 23.2481 30.3113L21.375 29.6875L23.2481 29.0637C23.7728 28.8888 24.2495 28.5941 24.6406 28.2031C25.0316 27.812 25.3263 27.3353 25.5012 26.8106L26.125 24.9375L26.7488 26.8106C26.9237 27.3353 27.2184 27.812 27.6094 28.2031C28.0005 28.5941 28.4772 28.8888 29.0019 29.0637L30.875 29.6875L29.0019 30.3113C28.4772 30.4862 28.0005 30.7809 27.6094 31.1719C27.2184 31.563 26.9237 32.0397 26.7488 32.5644Z" stroke="#D6DA0E" stroke-width="2.5" stroke-linejoin="round"/>
</svg>
