<svg width="38" height="38" viewBox="0 0 38 38" fill="none" xmlns="http://www.w3.org/2000/svg">
<path d="M14.25 20.1875L17.8125 23.75L23.75 15.4375M33.25 19C33.25 21.0077 32.2525 22.7842 30.7278 23.8577C30.892 24.7962 30.8277 25.7605 30.5403 26.669C30.2528 27.5774 29.7506 28.4031 29.0763 29.0763C28.4031 29.7506 27.5774 30.2528 26.669 30.5402C25.7605 30.8277 24.7962 30.892 23.8577 30.7277C23.3102 31.5075 22.5828 32.1438 21.7373 32.5829C20.8917 33.0219 19.9528 33.2508 19 33.25C16.9923 33.25 15.2158 32.2525 14.1423 30.7277C13.2038 30.8919 12.2395 30.8275 11.3311 30.5401C10.4227 30.2526 9.59693 29.7505 8.92367 29.0763C8.24936 28.4031 7.74722 27.5774 7.45975 26.669C7.17229 25.7605 7.10797 24.7962 7.27225 23.8577C6.4925 23.3102 5.85615 22.5828 5.4171 21.7373C4.97805 20.8917 4.74923 19.9528 4.75 19C4.75 16.9923 5.7475 15.2158 7.27225 14.1423C7.10797 13.2038 7.17229 12.2395 7.45975 11.331C7.74722 10.4226 8.24936 9.59685 8.92367 8.92367C9.59693 8.24947 10.4227 7.7474 11.3311 7.45994C12.2395 7.17249 13.2038 7.10811 14.1423 7.27225C14.6899 6.49259 15.4173 5.85632 16.2628 5.41728C17.1084 4.97824 18.0473 4.74936 19 4.75C21.0077 4.75 22.7842 5.7475 23.8577 7.27225C24.7962 7.10811 25.7605 7.17249 26.6689 7.45994C27.5773 7.7474 28.4031 8.24947 29.0763 8.92367C29.7505 9.59693 30.2526 10.4227 30.5401 11.3311C30.8275 12.2395 30.8919 13.2038 30.7278 14.1423C31.5075 14.6898 32.1439 15.4172 32.5829 16.2627C33.022 17.1083 33.2508 18.0472 33.25 19Z" stroke="#039963" stroke-width="2.5" stroke-linejoin="round"/>
</svg>
