<svg width="38" height="38" viewBox="0 0 38 38" fill="none" xmlns="http://www.w3.org/2000/svg">
<rect width="38" height="38" rx="19" fill="#C6C8FE"/>
<path d="M14.0458 18.25C14.7898 18.25 15.4609 17.804 15.9206 17.17C16.6372 16.1796 17.5366 15.3622 18.5615 14.77C19.2289 14.386 19.8077 13.814 20.0874 13.055C20.2838 12.5233 20.3847 11.9558 20.3846 11.383V10.75C20.3846 10.5511 20.4575 10.3603 20.5874 10.2197C20.7172 10.079 20.8933 10 21.0769 10C21.6278 10 22.156 10.2371 22.5455 10.659C22.935 11.081 23.1538 11.6533 23.1538 12.25C23.1538 13.402 22.9138 14.493 22.4865 15.468C22.2409 16.026 22.5852 16.75 23.1557 16.75M23.1557 16.75H26.0412C26.9883 16.75 27.8366 17.444 27.9372 18.465C27.9788 18.887 28 19.315 28 19.75C28.0038 22.4863 27.1406 25.1412 25.5548 27.271C25.1966 27.753 24.6437 28 24.0732 28H20.3661C19.9203 28 19.4763 27.922 19.0526 27.77L16.1782 26.73C15.7546 26.5774 15.311 26.4997 14.8646 26.5H13.3729M23.1557 16.75H21.0769M13.3729 26.5C13.4495 26.705 13.5326 26.905 13.6222 27.102C13.804 27.502 13.5502 28 13.1394 28H12.3012C11.4806 28 10.72 27.482 10.4809 26.632C10.1612 25.4952 9.99914 24.3133 10 23.125C10 21.572 10.2723 20.089 10.7671 18.727C11.0495 17.953 11.7695 17.5 12.5385 17.5H13.5105C13.9462 17.5 14.1982 18.056 13.972 18.46C13.1836 19.866 12.7678 21.4799 12.7702 23.125C12.7702 24.319 12.9843 25.458 13.3738 26.5H13.3729Z" stroke="#030999" stroke-linecap="round" stroke-linejoin="round"/>
</svg>
