<svg width="38" height="38" viewBox="0 0 38 38" fill="none" xmlns="http://www.w3.org/2000/svg">
<rect width="38" height="38" rx="19" fill="#C6C8FE"/>
<path d="M28 14.1537C28.0001 14.729 27.8806 15.298 27.6492 15.8246C27.4178 16.3513 27.0794 16.8241 26.6557 17.2132C26.2319 17.6022 25.7319 17.899 25.1874 18.0846C24.6429 18.2703 24.0658 18.3408 23.4926 18.2917C22.4996 18.2078 21.4032 18.3573 20.7701 19.126L14.1696 27.14C13.9613 27.3938 13.7023 27.6012 13.4091 27.7488C13.1159 27.8964 12.795 27.981 12.4671 27.9972C12.1392 28.0133 11.8116 27.9606 11.5053 27.8425C11.199 27.7244 10.9209 27.5434 10.6887 27.3113C10.4566 27.0792 10.2757 26.801 10.1575 26.4948C10.0394 26.1885 9.98671 25.8609 10.0028 25.533C10.019 25.2051 10.1036 24.8843 10.2512 24.5911C10.3989 24.2979 10.6063 24.0389 10.8601 23.8307L18.8745 17.2305C19.6432 16.5974 19.7927 15.5011 19.7087 14.5081C19.6468 13.7866 19.7746 13.0614 20.0795 12.4046C20.3843 11.7477 20.8557 11.182 21.4467 10.7635C22.0378 10.3451 22.728 10.0884 23.4489 10.0191C24.1697 9.94974 24.8962 10.0701 25.5562 10.3682L22.5328 13.3914C22.6498 13.8973 22.9064 14.3601 23.2735 14.7272C23.6406 15.0942 24.1035 15.3509 24.6093 15.4678L27.6327 12.4446C27.8689 12.966 28 13.5446 28 14.1537Z" stroke="#030999" stroke-linecap="round" stroke-linejoin="round"/>
<path d="M11.7354 26.2648H11.749V26.2784H11.7354V26.2648Z" stroke="#030999" stroke-width="0.822581" stroke-linecap="round" stroke-linejoin="round"/>
</svg>
