<svg width="38" height="38" viewBox="0 0 38 38" fill="none" xmlns="http://www.w3.org/2000/svg">
<rect width="38" height="38" rx="19" fill="#C6C8FE"/>
<path d="M10 14.1538C10 21.8006 16.1994 28 23.8462 28H25.9231C26.4739 28 27.0022 27.7812 27.3917 27.3917C27.7812 27.0022 28 26.4739 28 25.9231V24.6566C28 24.1803 27.676 23.7649 27.2135 23.6495L23.1308 22.6286C22.7246 22.5271 22.2982 22.6794 22.048 23.0135L21.1526 24.2071C20.8923 24.5542 20.4428 24.7074 20.0357 24.5578C18.5245 24.0023 17.1521 23.1249 16.0136 21.9864C14.8751 20.8479 13.9977 19.4755 13.4422 17.9643C13.2926 17.5572 13.4458 17.1077 13.7929 16.8474L14.9865 15.952C15.3215 15.7018 15.4729 15.2745 15.3714 14.8692L14.3505 10.7865C14.2943 10.5619 14.1647 10.3625 13.9822 10.22C13.7997 10.0775 13.5749 10.0001 13.3434 10H12.0769C11.5261 10 10.9978 10.2188 10.6083 10.6083C10.2188 10.9978 10 11.5261 10 12.0769V14.1538Z" stroke="#030999" stroke-linecap="round" stroke-linejoin="round"/>
</svg>
