<svg width="32" height="32" viewBox="0 0 32 32" fill="none" xmlns="http://www.w3.org/2000/svg">
<path d="M3.33301 16C3.33301 10.0294 3.33301 7.04271 5.18767 5.18804C7.04234 3.33337 10.0277 3.33337 15.9997 3.33337C21.9703 3.33337 24.957 3.33337 26.8117 5.18804C28.6663 7.04271 28.6663 10.028 28.6663 16C28.6663 21.9707 28.6663 24.9574 26.8117 26.812C24.957 28.6667 21.9717 28.6667 15.9997 28.6667C10.029 28.6667 7.04234 28.6667 5.18767 26.812C3.33301 24.9574 3.33301 21.972 3.33301 16Z" stroke="white" stroke-width="1.5" stroke-linecap="round" stroke-linejoin="round"/>
<path d="M23.344 8.66675H23.3307M22 16.0001C22 17.5914 21.3679 19.1175 20.2426 20.2427C19.1174 21.3679 17.5913 22.0001 16 22.0001C14.4087 22.0001 12.8826 21.3679 11.7574 20.2427C10.6321 19.1175 10 17.5914 10 16.0001C10 14.4088 10.6321 12.8827 11.7574 11.7574C12.8826 10.6322 14.4087 10.0001 16 10.0001C17.5913 10.0001 19.1174 10.6322 20.2426 11.7574C21.3679 12.8827 22 14.4088 22 16.0001Z" stroke="white" stroke-width="1.5" stroke-linecap="round" stroke-linejoin="round"/>
</svg>
