<svg width="32" height="32" viewBox="0 0 32 32" fill="none" xmlns="http://www.w3.org/2000/svg">
<path d="M25.6667 6.88008C24.4443 5.64531 22.9882 4.6663 21.3835 4.00015C19.7788 3.33399 18.0575 2.99403 16.32 3.00008C9.04 3.00008 3.10667 8.93341 3.10667 16.2134C3.10667 18.5467 3.72 20.8134 4.86667 22.8134L3 29.6667L10 27.8267C11.9333 28.8801 14.1067 29.4401 16.32 29.4401C23.6 29.4401 29.5333 23.5067 29.5333 16.2267C29.5333 12.6934 28.16 9.37341 25.6667 6.88008ZM16.32 27.2001C14.3467 27.2001 12.4133 26.6667 10.72 25.6667L10.32 25.4267L6.16 26.5201L7.26667 22.4667L7 22.0534C5.90366 20.3027 5.32152 18.2791 5.32 16.2134C5.32 10.1601 10.2533 5.22675 16.3067 5.22675C19.24 5.22675 22 6.37341 24.0667 8.45341C25.09 9.47203 25.9009 10.6836 26.4525 12.018C27.0041 13.3523 27.2854 14.7829 27.28 16.2267C27.3067 22.2801 22.3733 27.2001 16.32 27.2001ZM22.3467 18.9867C22.0133 18.8267 20.3867 18.0267 20.0933 17.9067C19.7867 17.8001 19.5733 17.7467 19.3467 18.0667C19.12 18.4001 18.4933 19.1467 18.3067 19.3601C18.12 19.5867 17.92 19.6134 17.5867 19.4401C17.2533 19.2801 16.1867 18.9201 14.9333 17.8001C13.9467 16.9201 13.2933 15.8401 13.0933 15.5067C12.9067 15.1734 13.0667 15.0001 13.24 14.8267C13.3867 14.6801 13.5733 14.4401 13.7333 14.2534C13.8933 14.0667 13.96 13.9201 14.0667 13.7067C14.1733 13.4801 14.12 13.2934 14.04 13.1334C13.96 12.9734 13.2933 11.3467 13.0267 10.6801C12.76 10.0401 12.48 10.1201 12.28 10.1067H11.64C11.4133 10.1067 11.0667 10.1867 10.76 10.5201C10.4667 10.8534 9.61333 11.6534 9.61333 13.2801C9.61333 14.9067 10.8 16.4801 10.96 16.6934C11.12 16.9201 13.2933 20.2534 16.6 21.6801C17.3867 22.0267 18 22.2267 18.48 22.3734C19.2667 22.6267 19.9867 22.5867 20.56 22.5067C21.2 22.4134 22.52 21.7067 22.7867 20.9334C23.0667 20.1601 23.0667 19.5067 22.9733 19.3601C22.88 19.2134 22.68 19.1467 22.3467 18.9867Z" fill="white"/>
</svg>
