<svg width="42" height="42" viewBox="0 0 42 42" fill="none" xmlns="http://www.w3.org/2000/svg">
<path d="M3.09766 34.0585V32.3085H38.9027V34.0585H3.09766ZM8.07816 30.5585C7.27199 30.5585 6.59941 30.2884 6.06041 29.7482C5.52141 29.2081 5.25132 28.5355 5.25016 27.7305V10.6347C5.25016 9.82973 5.52024 9.15714 6.06041 8.61698C6.60057 8.07681 7.27257 7.80731 8.07641 7.80848H33.9239C34.7289 7.80848 35.4009 8.07798 35.9399 8.61698C36.4789 9.15598 36.749 9.82856 36.7502 10.6347V27.7322C36.7502 28.5372 36.4801 29.2092 35.9399 29.7482C35.3997 30.2872 34.7272 30.5573 33.9222 30.5585H8.07816ZM8.07816 28.8085H33.9239C34.1922 28.8085 34.439 28.6959 34.6642 28.4707C34.8893 28.2456 35.0013 27.9988 35.0002 27.7305V10.6347C35.0002 10.3664 34.8882 10.1196 34.6642 9.89448C34.439 9.66931 34.1917 9.55673 33.9222 9.55673H8.07816C7.80866 9.55673 7.56132 9.66931 7.33616 9.89448C7.11216 10.1185 7.00016 10.3652 7.00016 10.6347V27.7322C7.00016 28.0006 7.11216 28.2467 7.33616 28.4707C7.56016 28.6947 7.80691 28.8073 8.07641 28.8085" fill="white"/>
</svg>
