<svg width="52" height="52" viewBox="0 0 52 52" fill="none" xmlns="http://www.w3.org/2000/svg">
<path d="M4 42.5V40.3333H48.33V42.5H4ZM10.1663 38.1667C9.16822 38.1667 8.3355 37.8323 7.66817 37.1635C7.00083 36.4947 6.66644 35.662 6.665 34.6653V13.4992C6.665 12.5025 6.99939 11.6698 7.66817 11.001C8.33694 10.3322 9.16894 9.99856 10.1642 10H42.1658C43.1625 10 43.9945 10.3337 44.6618 11.001C45.3292 11.6683 45.6636 12.5011 45.665 13.4992V34.6675C45.665 35.6642 45.3306 36.4962 44.6618 37.1635C43.9931 37.8308 43.1603 38.1652 42.1637 38.1667H10.1663ZM10.1663 36H42.1658C42.4981 36 42.8036 35.8606 43.0823 35.5818C43.3611 35.3031 43.4998 34.9976 43.4983 34.6653V13.4992C43.4983 13.1669 43.3597 12.8614 43.0823 12.5827C42.8036 12.3039 42.4973 12.1645 42.1637 12.1645H10.1663C9.83267 12.1645 9.52644 12.3039 9.24767 12.5827C8.97033 12.86 8.83167 13.1655 8.83167 13.4992V34.6675C8.83167 34.9997 8.97033 35.3045 9.24767 35.5818C9.525 35.8592 9.8305 35.9986 10.1642 36" fill="black"/>
</svg>
