<svg width="48" height="48" viewBox="0 0 48 48" fill="none" xmlns="http://www.w3.org/2000/svg">
<path d="M17.999 25.5L22.499 30L29.999 19.5M41.999 24C41.999 26.3638 41.5334 28.7044 40.6289 30.8883C39.7243 33.0722 38.3984 35.0565 36.7269 36.7279C35.0555 38.3994 33.0712 39.7252 30.8873 40.6298C28.7035 41.5344 26.3628 42 23.999 42C21.6352 42 19.2946 41.5344 17.1107 40.6298C14.9269 39.7252 12.9426 38.3994 11.2711 36.7279C9.59965 35.0565 8.27378 33.0722 7.36919 30.8883C6.46461 28.7044 5.99902 26.3638 5.99902 24C5.99902 19.2261 7.89545 14.6477 11.2711 11.2721C14.6468 7.89642 19.2251 6 23.999 6C28.7729 6 33.3513 7.89642 36.7269 11.2721C40.1026 14.6477 41.999 19.2261 41.999 24Z" stroke="#27AE60" stroke-width="2" stroke-linecap="round" stroke-linejoin="round"/>
</svg>
